HIERARCHY
ROOT hip
{
  OFFSET 0 0 0
  CHANNELS 6 Xposition Yposition Zposition Zrotation Yrotation Xrotation
  JOINT abdomen
  {
    OFFSET 0 20.6881 -0.73152
    CHANNELS 3 Zrotation Xrotation Yrotation
    JOINT chest
    {
      OFFSET 0 11.7043 -0.48768
      CHANNELS 3 Zrotation Xrotation Yrotation
      JOINT neck
      {
        OFFSET 0 22.1894 -2.19456
        CHANNELS 3 Zrotation Xrotation Yrotation
        JOINT head
        {
          OFFSET -0.24384 7.07133 1.2192
          CHANNELS 3 Zrotation Xrotation Yrotation
          JOINT leftEye
          {
            OFFSET 4.14528 8.04674 8.04672
            CHANNELS 3 Zrotation Xrotation Yrotation
            End Site
            {
              OFFSET 1 0 0
            }
          }
          JOINT rightEye
          {
            OFFSET -3.6576 8.04674 8.04672
            CHANNELS 3 Zrotation Xrotation Yrotation
            End Site
            {
              OFFSET 1 0 0
            }
          }
        }
      }
      JOINT rCollar
      {
        OFFSET -2.68224 19.2634 -4.8768
        CHANNELS 3 Zrotation Xrotation Yrotation
        JOINT rShldr
        {
          OFFSET -8.77824 -1.95073 1.46304
          CHANNELS 3 Zrotation Xrotation Yrotation
          JOINT rForeArm
          {
            OFFSET -28.1742 -1.7115 0.48768
            CHANNELS 3 Zrotation Xrotation Yrotation
            JOINT rHand
            {
              OFFSET -22.5879 0.773209 7.07136
              CHANNELS 3 Zrotation Xrotation Yrotation
              JOINT rThumb1
              {
                OFFSET -1.2192 -0.487915 3.41376
                CHANNELS 3 Zrotation Xrotation Yrotation
                JOINT rThumb2
                {
                  OFFSET -3.37035 -0.52449 3.41376
                  CHANNELS 3 Zrotation Xrotation Yrotation
                  End Site
                  {
                    OFFSET -1.78271 -1.18214 1.43049
                  }
                }
              }
              JOINT rIndex1
              {
                OFFSET -7.75947 0.938293 5.60832
                CHANNELS 3 Zrotation Xrotation Yrotation
                JOINT rIndex2
                {
                  OFFSET -2.54057 -0.884171 1.56538
                  CHANNELS 3 Zrotation Xrotation Yrotation
                  End Site
                  {
                    OFFSET -1.62519 -0.234802 1.16502
                  }
                }
              }
              JOINT rMid1
              {
                OFFSET -8.24714 1.18213 3.41376
                CHANNELS 3 Zrotation Xrotation Yrotation
                JOINT rMid2
                {
                  OFFSET -3.10165 -0.590103 1.0647
                  CHANNELS 3 Zrotation Xrotation Yrotation
                  End Site
                  {
                    OFFSET -2.48547 -0.328903 0.83742
                  }
                }
              }
              JOINT rRing1
              {
                OFFSET -8.82822 0.546677 1.51678
                CHANNELS 3 Zrotation Xrotation Yrotation
                JOINT rRing2
                {
                  OFFSET -2.60934 -0.819778 -0.0198488
                  CHANNELS 3 Zrotation Xrotation Yrotation
                  End Site
                  {
                    OFFSET -2.33842 -0.294052 0.168128
                  }
                }
              }
              JOINT rPinky1
              {
                OFFSET -8.27202 -0.0477905 -0.4584
                CHANNELS 3 Zrotation Xrotation Yrotation
                JOINT rPinky2
                {
                  OFFSET -1.82734 -0.647385 -0.700984
                  CHANNELS 3 Zrotation Xrotation Yrotation
                  End Site
                  {
                    OFFSET -1.69225 -0.51767 -0.607171
                  }
                }
              }
            }
          }
        }
      }
      JOINT lCollar
      {
        OFFSET 2.68224 19.2634 -4.8768
        CHANNELS 3 Zrotation Xrotation Yrotation
        JOINT lShldr
        {
          OFFSET 8.77824 -1.95073 1.46304
          CHANNELS 3 Zrotation Xrotation Yrotation
          JOINT lForeArm
          {
            OFFSET 28.1742 -1.7115 0.48768
            CHANNELS 3 Zrotation Xrotation Yrotation
            JOINT lHand
            {
              OFFSET 22.5879 0.773209 7.07136
              CHANNELS 3 Zrotation Xrotation Yrotation
              JOINT lThumb1
              {
                OFFSET 1.2192 -0.487915 3.41376
                CHANNELS 3 Zrotation Xrotation Yrotation
                JOINT lThumb2
                {
                  OFFSET 3.37035 -0.52449 3.41376
                  CHANNELS 3 Zrotation Xrotation Yrotation
                  End Site
                  {
                    OFFSET 1.78271 -1.18214 1.43049
                  }
                }
              }
              JOINT lIndex1
              {
                OFFSET 7.75947 0.938293 5.60832
                CHANNELS 3 Zrotation Xrotation Yrotation
                JOINT lIndex2
                {
                  OFFSET 2.54057 -0.884171 1.56538
                  CHANNELS 3 Zrotation Xrotation Yrotation
                  End Site
                  {
                    OFFSET 1.62519 -0.234802 1.16502
                  }
                }
              }
              JOINT lMid1
              {
                OFFSET 8.24714 1.18213 3.41376
                CHANNELS 3 Zrotation Xrotation Yrotation
                JOINT lMid2
                {
                  OFFSET 3.10165 -0.590103 1.0647
                  CHANNELS 3 Zrotation Xrotation Yrotation
                  End Site
                  {
                    OFFSET 2.48547 -0.328903 0.83742
                  }
                }
              }
              JOINT lRing1
              {
                OFFSET 8.82822 0.546677 1.51678
                CHANNELS 3 Zrotation Xrotation Yrotation
                JOINT lRing2
                {
                  OFFSET 2.60934 -0.819778 -0.0198488
                  CHANNELS 3 Zrotation Xrotation Yrotation
                  End Site
                  {
                    OFFSET 2.33842 -0.294052 0.168128
                  }
                }
              }
              JOINT lPinky1
              {
                OFFSET 8.27202 -0.0477905 -0.4584
                CHANNELS 3 Zrotation Xrotation Yrotation
                JOINT lPinky2
                {
                  OFFSET 1.82734 -0.647385 -0.700984
                  CHANNELS 3 Zrotation Xrotation Yrotation
                  End Site
                  {
                    OFFSET 1.69225 -0.51767 -0.607171
                  }
                }
              }
            }
          }
        }
      }
    }
  }
  JOINT rButtock
  {
    OFFSET -8.77824 4.35084 1.2192
    CHANNELS 3 Zrotation Xrotation Yrotation
    JOINT rThigh
    {
      OFFSET 0 -1.70687 -2.19456
      CHANNELS 3 Zrotation Xrotation Yrotation
      JOINT rShin
      {
        OFFSET 0 -36.8199 0.73152
        CHANNELS 3 Zrotation Xrotation Yrotation
        JOINT rFoot
        {
          OFFSET 0.73152 -45.1104 -5.12064
          CHANNELS 3 Zrotation Xrotation Yrotation
          End Site
          {
            OFFSET -1.1221 -3.69964 12.103
          }
        }
      }
    }
  }
  JOINT lButtock
  {
    OFFSET 8.77824 4.35084 1.2192
    CHANNELS 3 Zrotation Xrotation Yrotation
    JOINT lThigh
    {
      OFFSET 0 -1.70687 -2.19456
      CHANNELS 3 Zrotation Xrotation Yrotation
      JOINT lShin
      {
        OFFSET 0 -36.8199 0.73152
        CHANNELS 3 Zrotation Xrotation Yrotation
        JOINT lFoot
        {
          OFFSET -0.73152 -45.1104 -5.12064
          CHANNELS 3 Zrotation Xrotation Yrotation
          End Site
          {
            OFFSET 1.1221 -3.69964 12.103
          }
        }
      }
    }
  }
}
MOTION
Frames:	6
Frame Time:	0.00833333
143.789 83.8008 122.211 0.0 0.0 0.0 -2.04812 -0.00112551 -0.0554682 -0.564315 0.00679312 -0.0976929 2.44227e-14 -1.59028e-15 5.79255e-23 7.31372e-14 3.18055e-15 -7.76503e-17 -0.0 0.0 0.0 -0.0 0.0 0.0 1.21255e-14 1.02887e-16 4.96962e-17 2.59621e-13 2.34814e-15 1.78906e-15 4.43797e-12 -1.24717e-12 -7.31528e-14 5.0735e-11 1.74401e-12 9.22361e-14 1.19695e-10 1.07576e-12 4.45278e-14 2.06716e-10 1.85744e-12 6.36111e-14 1.19703e-10 1.0798e-12 3.49861e-14 7.73091 5.47488 0.417314 1.19697e-10 1.07682e-12 4.45278e-14 2.90554 0.965183 0.102902 1.1971e-10 1.07672e-12 4.05521e-14 10.2786 0.731801 0.0259123 1.19694e-10 1.07503e-12 4.45278e-14 2.22167 -0.733487 -0.20892 1.22264e-14 1.03663e-16 -9.93923e-17 2.54588e-13 2.24875e-15 -3.97569e-16 4.42455e-12 1.40382e-12 -1.59028e-14 5.07333e-11 -9.16422e-13 4.45278e-14 1.19665e-10 1.05747e-12 3.49861e-14 2.06657e-10 1.81928e-12 7.07673e-14 1.19657e-10 1.06191e-12 5.08889e-14 -7.73091 5.47488 -0.417314 1.19663e-10 1.05843e-12 3.81667e-14 -2.90554 0.965183 -0.102902 1.19654e-10 1.05823e-12 4.21423e-14 -10.2786 0.731801 -0.0259123 1.1966e-10 1.05594e-12 3.81667e-14 -2.22167 -0.733487 0.20892 -2.03217e-16 0.0 -3.88251e-19 -1.04922 -1.92716 0.000322018 -0.00907906 -2.07858 -0.0748754 -0.505507 3.9982 0.139347 2.03217e-16 0.0 3.88251e-19 -2.06501 -7.46949 0.204681 -0.00449932 7.96071 -0.117509 0.539745 -0.498666 -0.0508624
141.567 82.1471 112.579 -162.138 -56.6434 172.725 -2.12214 3.49494 -1.18541 0.677288 -1.09611 -0.398467 -3.24182 5.61201 -4.72616 9.36599 -5.11779 -9.05801 -0.0 0.0 0.0 -0.0 0.0 0.0 -1.43591e-13 3.16687e-13 -8.30536e-14 21.558 7.71062 2.3022 -6.19526 -3.36354 9.00859 0.0432118 -4.61915 -0.641611 2.06088e-09 -1.02409e-09 -3.3596e-11 3.56058e-09 -1.8e-09 -3.4319e-11 2.06089e-09 -1.02409e-09 -3.36047e-11 7.73091 5.47488 0.417314 2.06088e-09 -1.02409e-09 -3.35969e-11 2.90554 0.965183 0.102902 2.06089e-09 -1.02409e-09 -3.35992e-11 10.2786 0.731801 0.0259123 2.06088e-09 -1.02409e-09 -3.35935e-11 2.22167 -0.733487 -0.20892 -1.43573e-13 3.16685e-13 -8.32162e-14 -20.2882 6.42936 -2.40162 2.81155 -1.08567 -4.57781 -0.00390957 1.42021 -0.199397 1.9569e-09 -3.45995e-10 7.55085e-10 3.38481e-09 -5.97545e-10 1.29626e-09 1.95689e-09 -3.4599e-10 7.55099e-10 -7.73091 5.47488 -0.417314 1.9569e-09 -3.45993e-10 7.55089e-10 -2.90554 0.965183 -0.102902 1.95689e-09 -3.45993e-10 7.55091e-10 -10.2786 0.731801 -0.0259123 1.95689e-09 -3.45994e-10 7.55085e-10 -2.22167 -0.733487 0.20892 -2.03217e-16 0.0 -3.88251e-19 0.735287 -8.62193 -1.27144 0.0130782 7.09608 0.0897327 -0.832763 0.411883 -4.16593 2.03217e-16 0.0 3.88251e-19 0.71755 -12.5491 3.0484 -0.0429075 15.4082 -0.291627 1.2951 -5.2379 6.26168
141.764 82.1645 112.594 -161.916 -56.0168 172.371 -2.04975 7.18501 -2.39855 1.98244 -2.26618 -0.717345 -5.6544 11.4131 -9.86798 17.5088 -10.1044 -18.8463 -0.0 0.0 0.0 -0.0 0.0 0.0 -3.21337e-13 6.69082e-13 -1.48414e-13 43.6439 15.8601 4.88629 -11.6365 -6.66746 18.6719 -0.0252163 -9.52605 -1.33752 4.16623e-09 -2.25963e-09 -5.2495e-12 7.19715e-09 -3.96808e-09 4.06557e-11 4.16623e-09 -2.25963e-09 -5.25744e-12 7.73091 5.47488 0.417314 4.16623e-09 -2.25963e-09 -5.2515e-12 2.90554 0.965183 0.102902 4.16623e-09 -2.25963e-09 -5.25198e-12 10.2786 0.731801 0.0259123 4.16622e-09 -2.25963e-09 -5.2443e-12 2.22167 -0.733487 -0.20892 -3.21408e-13 6.69077e-13 -1.48592e-13 -41.1487 13.2623 -5.03207 5.60349 -2.2145 -9.43519 0.00279025 2.88628 -0.405658 3.88999e-09 -8.49245e-10 1.64101e-09 6.72934e-09 -1.46717e-09 2.81851e-09 3.88999e-09 -8.49239e-10 1.64102e-09 -7.73091 5.47488 -0.417314 3.88999e-09 -8.49241e-10 1.64102e-09 -2.90554 0.965183 -0.102902 3.88999e-09 -8.49241e-10 1.64102e-09 -10.2786 0.731801 -0.0259123 3.88999e-09 -8.49241e-10 1.64101e-09 -2.22167 -0.733487 0.20892 -2.03217e-16 0.0 -3.88251e-19 2.30278 -15.7187 -2.64736 -0.0227849 16.7721 0.273546 -1.76016 -3.32593 -8.7197 2.03217e-16 0.0 3.88251e-19 4.22927 -17.8636 6.19061 -0.0300962 23.2761 -0.496333 3.23414 -10.0697 13.0624
141.922 82.1939 112.726 -162.748 -55.6325 173.172 -1.85074 10.4702 -3.49698 3.1257 -3.3015 -1.00146 -6.88082 16.3688 -14.7196 23.3282 -13.8078 -27.9394 -0.0 0.0 0.0 -0.0 0.0 0.0 -4.55026e-13 9.49855e-13 -2.4926e-13 62.6842 22.9759 7.43704 -15.5105 -9.09452 27.3508 -0.188568 -13.8504 -1.97606 5.94325e-09 -3.07442e-09 -1.00877e-10 1.02683e-08 -5.40371e-09 -1.03084e-10 5.94326e-09 -3.07442e-09 -1.00884e-10 7.73091 5.47488 0.417314 5.94325e-09 -3.07442e-09 -1.0088e-10 2.90554 0.965183 0.102902 5.94326e-09 -3.07442e-09 -1.00879e-10 10.2786 0.731801 0.0259123 5.94325e-09 -3.07442e-09 -1.00869e-10 2.22167 -0.733487 -0.20892 -4.55171e-13 9.49848e-13 -2.4945e-13 -59.1721 19.1485 -7.58123 7.91905 -3.17396 -13.7525 0.0179958 4.26042 -0.599664 5.63136e-09 -1.0401e-09 2.26519e-09 9.74111e-09 -1.79627e-09 3.88863e-09 5.63136e-09 -1.04009e-09 2.26519e-09 -7.73091 5.47488 -0.417314 5.63136e-09 -1.0401e-09 2.26519e-09 -2.90554 0.965183 -0.102902 5.63136e-09 -1.0401e-09 2.26519e-09 -10.2786 0.731801 -0.0259123 5.63136e-09 -1.04009e-09 2.26518e-09 -2.22167 -0.733487 0.20892 -2.03217e-16 0.0 -3.88251e-19 3.3524 -21.9676 -4.06762 -0.113092 25.4447 0.461561 -3.09763 -6.58947 -12.8619 2.03217e-16 0.0 3.88251e-19 7.90406 -22.4948 9.22822 0.0372666 30.3017 -0.70732 5.95544 -14.0027 19.4067
142.104 82.2341 112.885 -163.973 -55.1083 174.583 -1.63566 12.7594 -4.25919 3.88915 -4.00035 -1.19728 -7.16687 19.6531 -18.332 26.6735 -15.771 -34.5591 -0.0 0.0 0.0 -0.0 0.0 0.0 -4.78574e-13 1.05157e-12 -4.38817e-13 75.5921 27.6597 9.38321 -17.6531 -10.3185 33.2466 -0.355854 -16.7252 -2.42042 6.89948e-09 -2.83734e-09 -5.0644e-10 1.1926e-08 -5.0082e-09 -7.9361e-10 6.89949e-09 -2.83734e-09 -5.06446e-10 7.73091 5.47488 0.417314 6.89948e-09 -2.83734e-09 -5.06443e-10 2.90554 0.965183 0.102902 6.89949e-09 -2.83734e-09 -5.06441e-10 10.2786 0.731801 0.0259123 6.89948e-09 -2.83734e-09 -5.0643e-10 2.22167 -0.733487 -0.20892 -4.78755e-13 1.05157e-12 -4.39016e-13 -71.3503 22.8013 -9.55145 9.41071 -3.79088 -16.701 0.0359635 5.40492 -0.761896 6.89343e-09 -4.49972e-10 2.23497e-09 1.1921e-08 -7.74048e-10 3.82839e-09 6.89342e-09 -4.49966e-10 2.23498e-09 -7.73091 5.47488 -0.417314 6.89343e-09 -4.49966e-10 2.23497e-09 -2.90554 0.965183 -0.102902 6.89342e-09 -4.49966e-10 2.23497e-09 -10.2786 0.731801 -0.0259123 6.89343e-09 -4.49965e-10 2.23496e-09 -2.22167 -0.733487 0.20892 -2.03217e-16 0.0 -3.88251e-19 3.76106 -26.132 -5.37728 -0.217191 31.6096 0.618462 -4.3423 -8.84346 -15.8684 2.03217e-16 0.0 3.88251e-19 10.8198 -25.6022 11.5863 0.123146 35.2224 -0.875635 8.39655 -16.3604 24.1129
142.245 82.2008 112.901 -164.345 -54.5756 174.771 -1.55856 13.6591 -4.50224 4.13002 -4.21418 -1.26578 -7.06333 20.9218 -19.8748 27.9092 -16.2975 -37.3855 -0.0 0.0 0.0 -0.0 0.0 0.0 -3.19973e-13 8.69773e-13 -8.16754e-13 80.6776 29.078 10.1063 -18.2177 -10.5135 35.0964 -0.420993 -17.5919 -2.55922 6.71874e-09 -8.69468e-10 -1.45808e-09 1.16278e-08 -1.60249e-09 -2.44388e-09 6.71874e-09 -8.69468e-10 -1.45809e-09 7.73091 5.47488 0.417314 6.71874e-09 -8.69468e-10 -1.45809e-09 2.90554 0.965183 0.102902 6.71875e-09 -8.69468e-10 -1.45808e-09 10.2786 0.731801 0.0259123 6.71874e-09 -8.69466e-10 -1.45807e-09 2.22167 -0.733487 -0.20892 -3.20127e-13 8.69764e-13 -8.16954e-13 -75.9543 23.3721 -10.4585 9.88983 -3.9744 -17.6908 0.0506386 6.28303 -0.886709 7.63035e-09 1.51283e-09 1.09671e-09 1.31871e-08 2.62345e-09 1.85238e-09 7.63035e-09 1.51284e-09 1.09672e-09 -7.73091 5.47488 -0.417314 7.63035e-09 1.51284e-09 1.09672e-09 -2.90554 0.965183 -0.102902 7.63035e-09 1.51284e-09 1.09671e-09 -10.2786 0.731801 -0.0259123 7.63035e-09 1.51284e-09 1.0967e-09 -2.22167 -0.733487 0.20892 -2.03217e-16 0.0 -3.88251e-19 3.63182 -27.426 -6.33501 -0.272594 34.284 0.69467 -4.96417 -9.83474 -17.1914 2.03217e-16 0.0 3.88251e-19 12.0929 -26.7115 12.7322 0.168446 37.1943 -0.940758 9.45388 -16.9558 26.2311
